# Blender 4.4.3
# www.blender.org
mtllib Alacena.mtl
o Alacena
v -0.488330 0.000000 0.244165
v -0.426142 0.075858 0.250000
v -0.500000 0.014004 0.244165
v -0.426142 1.124142 0.250000
v -0.488330 1.200000 0.244165
v -0.500000 1.185996 0.244165
v -0.488330 0.000000 -0.244165
v -0.500000 0.014004 -0.244165
v -0.488330 0.014004 -0.250000
v -0.488330 1.200000 -0.244165
v -0.488330 1.185996 -0.250000
v -0.500000 1.185996 -0.244165
v 0.488330 0.000000 0.244165
v 0.500000 0.014004 0.244165
v 0.426142 0.075858 0.250000
v 0.488330 1.200000 0.244165
v 0.426142 1.124142 0.250000
v 0.500000 1.185996 0.244165
v 0.488330 0.000000 -0.244165
v 0.488330 0.014004 -0.250000
v 0.500000 0.014004 -0.244165
v 0.488330 1.200000 -0.244165
v 0.500000 1.185996 -0.244165
v 0.488330 1.185996 -0.250000
v -0.488330 0.014004 0.250000
v -0.488330 1.185996 0.250000
v 0.488330 1.185996 0.250000
v 0.488330 0.014004 0.250000
v -0.426142 0.075858 0.213986
v -0.426142 1.124142 0.213986
v 0.426142 1.124142 0.213986
v 0.426142 0.075858 0.213986
v 0.015526 0.000000 -0.244165
v -0.015526 0.000000 -0.244165
v -0.015526 0.014004 -0.250000
v 0.015526 0.014004 -0.250000
v -0.015526 1.200000 -0.244165
v 0.015526 1.200000 -0.244165
v 0.015526 1.185996 -0.250000
v -0.015526 1.185996 -0.250000
v -0.015526 0.000000 0.244165
v 0.015526 0.000000 0.244165
v 0.015526 0.014004 0.250000
v -0.015526 0.014004 0.250000
v 0.015526 1.200000 0.244165
v -0.015526 1.200000 0.244165
v -0.015526 1.185996 0.250000
v 0.015526 1.185996 0.250000
v 0.013549 0.075858 0.250000
v -0.013549 0.075858 0.250000
v -0.013549 1.124142 0.250000
v 0.013549 1.124142 0.250000
v 0.013549 0.075858 0.213986
v -0.013549 0.075858 0.213986
v -0.013549 1.124142 0.213986
v 0.013549 1.124142 0.213986
v -0.488330 0.000000 -0.162777
v -0.488330 0.000000 0.162777
v -0.500000 0.014004 0.162777
v -0.500000 0.014004 -0.162777
v -0.488330 1.200000 0.162777
v -0.488330 1.200000 -0.162777
v -0.500000 1.185996 -0.162777
v -0.500000 1.185996 0.162777
v 0.488330 0.000000 0.162777
v 0.488330 0.000000 -0.162777
v 0.500000 0.014004 -0.162777
v 0.500000 0.014004 0.162777
v 0.488330 1.200000 -0.162777
v 0.488330 1.200000 0.162777
v 0.500000 1.185996 0.162777
v 0.500000 1.185996 -0.162777
v -0.015526 0.000000 -0.162777
v -0.015526 0.000000 0.162777
v 0.015526 0.000000 -0.162777
v 0.015526 0.000000 0.162777
v 0.015526 1.200000 -0.162777
v 0.015526 1.200000 0.162777
v -0.015526 1.200000 -0.162777
v -0.015526 1.200000 0.162777
v -0.050000 0.590000 0.232249
v -0.050000 0.610000 0.232249
v -0.050000 0.590000 0.212249
v -0.050000 0.610000 0.212249
v -0.030000 0.590000 0.232249
v -0.030000 0.610000 0.232249
v -0.030000 0.590000 0.212249
v -0.030000 0.610000 0.212249
v -0.050000 0.590000 0.250000
v -0.050000 0.610000 0.250000
v -0.030000 0.610000 0.250000
v -0.030000 0.590000 0.250000
v -0.050000 0.527132 0.232249
v -0.030000 0.527132 0.232249
v -0.050000 0.527132 0.250000
v -0.030000 0.527132 0.250000
v 0.030000 0.590000 0.232249
v 0.030000 0.610000 0.232249
v 0.030000 0.590000 0.212249
v 0.030000 0.610000 0.212249
v 0.050000 0.590000 0.232249
v 0.050000 0.610000 0.232249
v 0.050000 0.590000 0.212249
v 0.050000 0.610000 0.212249
v 0.030000 0.590000 0.250000
v 0.030000 0.610000 0.250000
v 0.050000 0.610000 0.250000
v 0.050000 0.590000 0.250000
v 0.030000 0.527132 0.232249
v 0.050000 0.527132 0.232249
v 0.030000 0.527132 0.250000
v 0.050000 0.527132 0.250000
v -0.488330 0.209336 0.250000
v -0.488330 0.990664 0.250000
v -0.500000 0.990664 0.244165
v -0.500000 0.209336 0.244165
v -0.488330 0.990664 -0.250000
v -0.488330 0.209336 -0.250000
v -0.500000 0.209336 -0.244165
v -0.500000 0.990664 -0.244165
v 0.500000 0.990664 -0.244165
v 0.500000 0.209336 -0.244165
v 0.488330 0.209336 -0.250000
v 0.488330 0.990664 -0.250000
v 0.488330 0.990664 0.250000
v 0.488330 0.209336 0.250000
v 0.500000 0.209336 0.244165
v 0.500000 0.990664 0.244165
v -0.426142 0.250572 0.250000
v -0.426142 0.949428 0.250000
v 0.426142 0.949428 0.250000
v 0.426142 0.250572 0.250000
v -0.426142 0.250572 0.213986
v -0.426142 0.949428 0.213986
v 0.426142 0.949428 0.213986
v 0.426142 0.250572 0.213986
v 0.013549 0.949428 0.213986
v 0.013549 0.250572 0.213986
v -0.013549 0.949428 0.213986
v -0.013549 0.250572 0.213986
v -0.015526 0.990664 -0.250000
v -0.015526 0.209336 -0.250000
v 0.015526 0.990664 -0.250000
v 0.015526 0.209336 -0.250000
v -0.500000 0.990664 0.162777
v -0.500000 0.209336 0.162777
v -0.500000 0.990664 -0.162777
v -0.500000 0.209336 -0.162777
v 0.500000 0.990664 -0.162777
v 0.500000 0.209336 -0.162777
v 0.500000 0.990664 0.162777
v 0.500000 0.209336 0.162777
vn -0.0000 -0.3846 0.9231
vn 0.1629 -0.1357 0.9773
vn 0.4191 -0.3492 0.8381
vn 1.0000 -0.0000 -0.0000
vn 0.9453 0.3263 -0.0000
vn 0.7637 0.2483 0.5959
vn 0.7701 -0.0000 0.6380
vn -0.0000 1.0000 -0.0000
vn -0.4451 0.8955 -0.0000
vn -0.3234 0.6908 0.6468
vn -0.0000 0.7092 0.7050
vn -1.0000 -0.0000 -0.0000
vn -0.9453 0.3263 -0.0000
vn -0.7637 0.2483 -0.5959
vn -0.7701 -0.0000 -0.6380
vn -0.0000 -0.0000 -1.0000
vn -0.0000 0.1701 -0.9854
vn 0.1891 0.1576 -0.9692
vn 0.2028 -0.0000 -0.9792
vn -0.3234 -0.6908 0.6468
vn -0.1891 -0.1575 0.9692
vn -0.7637 -0.2483 0.5959
vn -0.1891 0.1575 0.9692
vn -0.7637 0.2483 0.5959
vn -0.3234 -0.6908 -0.6468
vn -0.7637 -0.2483 -0.5959
vn -0.1891 -0.1576 -0.9692
vn -0.3234 0.6908 -0.6468
vn -0.1891 0.1576 -0.9692
vn 0.3234 -0.6908 0.6468
vn 0.7637 -0.2483 0.5959
vn 0.1891 -0.1575 0.9692
vn 0.3234 0.6908 0.6468
vn 0.1891 0.1575 0.9692
vn 0.3234 -0.6908 -0.6468
vn 0.1891 -0.1576 -0.9692
vn 0.7637 -0.2483 -0.5959
vn 0.3234 0.6908 -0.6468
vn 0.7637 0.2483 -0.5959
vn -0.4451 -0.8955 -0.0000
vn -0.9453 -0.3263 -0.0000
vn -0.2028 -0.0000 0.9792
vn -0.7701 -0.0000 0.6380
vn -0.2028 -0.0000 -0.9792
vn -0.0000 -0.7092 -0.7050
vn -0.0000 -0.1701 -0.9854
vn -0.0000 0.7092 -0.7050
vn 0.7701 -0.0000 -0.6380
vn 0.4451 -0.8955 -0.0000
vn 0.9453 -0.3263 -0.0000
vn 0.4451 0.8955 -0.0000
vn 0.2028 -0.0000 0.9792
vn -0.0000 -0.7092 0.7050
vn -0.0000 -0.1701 0.9854
vn -0.0000 0.1701 0.9854
vn -0.0000 -1.0000 -0.0000
vn 0.4472 -0.0000 0.8944
vn -0.4472 -0.0000 0.8944
vn -0.1629 0.1357 0.9773
vn -0.0000 0.3846 0.9231
vn 0.1629 0.1357 0.9773
vn -0.1629 -0.1357 0.9773
vn -0.0000 -0.0000 1.0000
vn -0.4191 -0.3492 0.8381
vn -0.4191 0.3492 0.8381
vn 0.4191 0.3492 0.8381
vn -0.8107 -0.2252 -0.5405
vn -0.7682 0.6402 -0.0000
vn -0.4191 0.3492 -0.8381
vn -0.4191 -0.3492 -0.8381
vn 0.4191 0.3492 -0.8381
vn 0.4191 -0.3492 -0.8381
vn 0.7682 0.6402 -0.0000
vn 0.8107 -0.2252 -0.5405
vt 0.732617 0.905572
vt 0.732617 0.905572
vt 0.742948 0.905572
vt 0.742948 0.905572
vt 0.323119 0.826359
vt 0.323119 0.919750
vt 0.323119 0.919750
vt 0.323119 0.826359
vt 0.164678 0.923097
vt 0.086852 0.923097
vt 0.086852 0.923098
vt 0.164678 0.923098
vt 0.084062 0.826359
vt 0.084062 0.919750
vt 0.084062 0.919750
vt 0.084062 0.826359
vt 0.242503 0.826359
vt 0.242503 0.919750
vt 0.320329 0.919750
vt 0.320329 0.826359
vt 0.702978 0.599309
vt 0.701481 0.602902
vt 0.702978 0.602902
vt 0.701481 0.903557
vt 0.702978 0.907149
vt 0.702978 0.903557
vt 0.828251 0.599309
vt 0.828251 0.602902
vt 0.829748 0.602902
vt 0.828251 0.907149
vt 0.829748 0.903557
vt 0.828251 0.903557
vt 0.744736 0.599309
vt 0.744736 0.602902
vt 0.701481 0.803339
vt 0.702978 0.803339
vt 0.786494 0.907149
vt 0.786494 0.903557
vt 0.829748 0.703120
vt 0.828251 0.703120
vt 0.828251 0.599309
vt 0.829748 0.602902
vt 0.828251 0.907149
vt 0.829748 0.903557
vt 0.786494 0.599309
vt 0.786494 0.602902
vt 0.744736 0.907149
vt 0.744736 0.903557
vt 0.701481 0.703120
vt 0.702978 0.703120
vt 0.242503 0.636229
vt 0.320329 0.636229
vt 0.320329 0.636229
vt 0.242503 0.636229
vt 0.101718 0.820412
vt 0.101718 0.901910
vt 0.086852 0.919750
vt 0.086852 0.826359
vt 0.305463 0.738914
vt 0.305463 0.657417
vt 0.320329 0.639577
vt 0.320329 0.732968
vt 0.169633 0.657417
vt 0.101718 0.657417
vt 0.086852 0.639577
vt 0.164678 0.639577
vt 0.237548 0.901910
vt 0.305463 0.901910
vt 0.320329 0.919750
vt 0.242503 0.919750
vt 0.169633 0.820412
vt 0.169633 0.901910
vt 0.732617 0.805332
vt 0.742948 0.805332
vt 0.732617 0.604852
vt 0.742948 0.604852
vt 0.732617 0.705092
vt 0.742948 0.705092
vt 0.305463 0.820412
vt 0.237548 0.820412
vt 0.721625 0.795566
vt 0.721625 0.895806
vt 0.713851 0.895806
vt 0.713851 0.795566
vt 0.164678 0.919750
vt 0.237548 0.657417
vt 0.242503 0.639577
vt 0.086852 0.636229
vt 0.164678 0.636229
vt 0.086852 0.826359
vt 0.086852 0.919750
vt 0.164678 0.919750
vt 0.164678 0.826359
vt 0.320329 0.923097
vt 0.242503 0.923097
vt 0.242503 0.923098
vt 0.320329 0.923098
vt 0.164678 0.923097
vt 0.164678 0.636229
vt 0.242503 0.636229
vt 0.242503 0.636229
vt 0.164678 0.636229
vt 0.086852 0.636229
vt 0.320329 0.636229
vt 0.786494 0.907149
vt 0.786494 0.903557
vt 0.786494 0.599309
vt 0.786494 0.602902
vt 0.189950 0.261545
vt 0.189950 0.274540
vt 0.202944 0.274540
vt 0.202944 0.261545
vt 0.189950 0.250012
vt 0.202944 0.250012
vt 0.323119 0.639577
vt 0.323119 0.732968
vt 0.323119 0.639577
vt 0.084062 0.639577
vt 0.084062 0.732968
vt 0.084062 0.639577
vt 0.164678 0.639577
vt 0.164678 0.732968
vt 0.242503 0.732968
vt 0.242503 0.639577
vt 0.086852 0.639577
vt 0.086852 0.732968
vt 0.721625 0.595087
vt 0.721625 0.695326
vt 0.713851 0.695326
vt 0.713851 0.595087
vt 0.237548 0.738914
vt 0.732617 0.805332
vt 0.742948 0.805332
vt 0.169633 0.738914
vt 0.101718 0.738914
vt 0.320329 0.826359
vt 0.828251 0.803339
vt 0.829748 0.803339
vt 0.320329 0.639577
s 1
usemtl AlacenaMaterial
f 51/1/1 4/2/2 30/3/3 55/4/1
f 151/5/4 71/6/5 18/7/6 128/8/7
f 80/9/8 61/10/9 5/11/10 46/12/11
f 147/13/12 63/14/13 12/15/14 120/16/15
f 143/17/16 39/18/17 24/19/18 124/20/19
f 1/21/20 25/22/21 3/23/22
f 26/24/23 5/25/10 6/26/24
f 7/27/25 8/28/26 9/29/27
f 10/30/28 11/31/29 12/32/14
f 13/21/30 14/23/31 28/22/32
f 16/25/33 27/24/34 18/26/6
f 19/27/35 20/29/36 21/28/37
f 22/30/38 23/32/39 24/31/18
f 58/33/40 1/21/20 3/23/22 59/34/41
f 114/35/42 26/24/23 6/26/24 115/36/43
f 62/37/9 10/30/28 12/32/14 63/38/13
f 118/39/44 9/29/27 8/28/26 119/40/15
f 34/41/45 7/27/25 9/29/27 35/42/46
f 38/43/47 22/30/38 24/31/18 39/44/17
f 122/40/48 21/28/37 20/29/36 123/39/19
f 66/45/49 19/27/35 21/28/37 67/46/50
f 70/47/51 16/25/33 18/26/6 71/48/5
f 126/49/52 28/22/32 14/23/31 127/50/7
f 42/21/53 13/21/30 28/22/32 43/22/54
f 46/25/11 5/25/10 26/24/23 47/24/55
f 76/51/56 65/52/49 13/53/30 42/54/53
f 130/55/57 4/56/2 26/57/23 114/58/42
f 132/59/58 15/60/59 28/61/32 126/62/52
f 50/63/60 2/64/61 25/65/21 44/66/54
f 52/67/1 17/68/62 27/69/34 48/70/55
f 139/71/63 55/72/1 30/56/3 134/55/57
f 131/73/58 17/2/62 31/3/64 135/74/58
f 49/75/60 15/75/59 32/76/65 53/76/60
f 129/77/57 2/75/61 29/76/66 133/78/57
f 2/75/61 50/75/60 54/76/60 29/76/66
f 50/75/60 49/75/60 53/76/60 54/76/60
f 135/79/58 31/68/64 56/67/1 137/80/63
f 137/81/63 56/82/1 55/83/1 139/84/63
f 4/56/2 51/72/1 47/85/55 26/57/23
f 51/72/1 52/67/1 48/70/55 47/85/55
f 15/60/59 49/86/60 43/87/54 28/61/32
f 49/86/60 50/63/60 44/66/54 43/87/54
f 58/88/40 74/89/56 41/89/53 1/88/20
f 74/89/56 76/51/56 42/54/53 41/89/53
f 16/25/33 45/25/11 48/24/55 27/24/34
f 45/25/11 46/25/11 47/24/55 48/24/55
f 1/21/20 41/21/53 44/22/54 25/22/21
f 41/21/53 42/21/53 43/22/54 44/22/54
f 10/30/28 37/43/47 40/44/17 11/31/29
f 37/43/47 38/43/47 39/44/17 40/44/17
f 19/27/35 33/41/45 36/42/46 20/29/36
f 33/41/45 34/41/45 35/42/46 36/42/46
f 117/90/44 11/91/29 40/92/17 141/93/16
f 141/93/16 40/92/17 39/18/17 143/17/16
f 70/94/51 78/95/8 45/96/11 16/97/33
f 78/95/8 80/9/8 46/12/11 45/96/11
f 17/2/62 52/2/1 56/3/1 31/3/64
f 52/2/1 51/1/1 55/4/1 56/3/1
f 38/95/47 37/98/47 79/98/8 77/95/8
f 77/95/8 79/98/8 80/9/8 78/95/8
f 22/94/38 38/95/47 77/95/8 69/94/51
f 69/94/51 77/95/8 78/95/8 70/94/51
f 34/99/45 33/100/45 75/101/56 73/102/56
f 73/102/56 75/101/56 76/51/56 74/89/56
f 7/103/25 34/99/45 73/102/56 57/88/40
f 57/88/40 73/102/56 74/89/56 58/88/40
f 33/100/45 19/104/35 66/52/49 75/101/56
f 75/101/56 66/52/49 65/52/49 76/51/56
f 22/30/38 69/105/51 72/106/5 23/32/39
f 69/105/51 70/47/51 71/48/5 72/106/5
f 13/21/30 65/33/49 68/34/50 14/23/31
f 65/33/49 66/45/49 67/46/50 68/34/50
f 5/25/10 61/47/9 64/48/13 6/26/24
f 61/47/9 62/37/9 63/38/13 64/48/13
f 7/27/25 57/107/40 60/108/41 8/28/26
f 57/107/40 58/33/40 59/34/41 60/108/41
f 115/13/43 6/15/24 64/15/13 145/13/12
f 145/13/12 64/15/13 63/14/13 147/13/12
f 37/98/47 10/10/28 62/10/9 79/98/8
f 79/98/8 62/10/9 61/10/9 80/9/8
f 121/5/48 23/7/39 72/7/5 149/5/4
f 149/5/4 72/7/5 71/6/5 151/5/4
f 81/109/67 82/109/68 84/110/69 83/110/70
f 83/110/70 84/110/69 88/111/71 87/111/72
f 87/111/72 88/111/71 86/112/73 85/112/74
f 86/112/73 82/109/68 90/113/65 91/114/66
f 83/110/70 87/111/72 85/112/74 81/109/67
f 88/111/71 84/110/69 82/109/68 86/112/73
f 92/114/57 91/114/66 90/113/65 89/113/58
f 85/112/74 86/112/73 91/114/66 92/114/57
f 82/109/68 81/109/67 89/113/58 90/113/65
f 89/113/58 81/109/67 93/109/70 95/113/64
f 93/109/70 94/112/72 96/114/3 95/113/64
f 85/112/74 92/114/57 96/114/3 94/112/72
f 92/114/57 89/113/58 95/113/64 96/114/3
f 81/109/67 85/112/74 94/112/72 93/109/70
f 97/109/67 98/109/68 100/110/69 99/110/70
f 99/110/70 100/110/69 104/111/71 103/111/72
f 103/111/72 104/111/71 102/112/73 101/112/74
f 102/112/73 98/109/68 106/113/65 107/114/66
f 99/110/70 103/111/72 101/112/74 97/109/67
f 104/111/71 100/110/69 98/109/68 102/112/73
f 108/114/57 107/114/66 106/113/65 105/113/58
f 101/112/74 102/112/73 107/114/66 108/114/57
f 98/109/68 97/109/67 105/113/58 106/113/65
f 105/113/58 97/109/67 109/109/70 111/113/64
f 109/109/70 110/112/72 112/114/3 111/113/64
f 101/112/74 108/114/57 112/114/3 110/112/72
f 108/114/57 105/113/58 111/113/64 112/114/3
f 97/109/67 101/112/74 110/112/72 109/109/70
f 67/115/50 150/116/4 152/116/4 68/117/50
f 150/116/4 149/5/4 151/5/4 152/116/4
f 21/115/37 122/116/48 150/116/4 67/115/50
f 122/116/48 121/5/48 149/5/4 150/116/4
f 59/118/41 146/119/12 148/119/12 60/120/41
f 146/119/12 145/13/12 147/13/12 148/119/12
f 3/118/22 116/119/43 146/119/12 59/118/41
f 116/119/43 115/13/43 145/13/12 146/119/12
f 35/121/46 142/122/16 144/123/16 36/124/46
f 142/122/16 141/93/16 143/17/16 144/123/16
f 9/125/27 118/126/44 142/122/16 35/121/46
f 118/126/44 117/90/44 141/93/16 142/122/16
f 53/127/60 138/128/63 140/129/63 54/130/60
f 138/128/63 137/81/63 139/84/63 140/129/63
f 32/60/65 136/59/58 138/131/63 53/86/60
f 136/59/58 135/79/58 137/80/63 138/131/63
f 4/2/2 130/132/57 134/133/57 30/3/3
f 130/132/57 129/77/57 133/78/57 134/133/57
f 15/75/59 132/77/58 136/78/58 32/76/65
f 132/77/58 131/73/58 135/74/58 136/78/58
f 54/63/60 140/134/63 133/135/57 29/64/66
f 140/134/63 139/71/63 134/55/57 133/135/57
f 17/68/62 131/79/58 125/136/52 27/69/34
f 131/79/58 132/59/58 126/62/52 125/136/52
f 2/64/61 129/135/57 113/126/42 25/65/21
f 129/135/57 130/55/57 114/58/42 113/126/42
f 27/24/34 125/35/52 128/36/7 18/26/6
f 125/35/52 126/49/52 127/50/7 128/36/7
f 23/32/39 121/137/48 124/138/19 24/31/18
f 121/137/48 122/40/48 123/39/19 124/138/19
f 11/31/29 117/138/44 120/137/15 12/32/14
f 117/138/44 118/39/44 119/40/15 120/137/15
f 25/22/21 113/49/42 116/50/43 3/23/22
f 113/49/42 114/35/42 115/36/43 116/50/43
f 36/124/46 144/123/16 123/62/19 20/139/36
f 144/123/16 143/17/16 124/20/19 123/62/19
f 60/120/41 148/119/12 119/119/15 8/120/26
f 148/119/12 147/13/12 120/16/15 119/119/15
f 68/117/50 152/116/4 127/116/7 14/117/31
f 152/116/4 151/5/4 128/8/7 127/116/7
