# Blender 4.4.3
# www.blender.org
mtllib Taburete.mtl
o Taburete
v -0.475522 0.097436 0.165353
v -0.475522 0.105914 0.173831
v -0.484000 0.105914 0.165353
v -0.475522 0.304204 0.173831
v -0.475522 0.312683 0.165353
v -0.484000 0.304204 0.165353
v -0.475522 0.097436 -0.165353
v -0.484000 0.105914 -0.165353
v -0.475522 0.105914 -0.173831
v -0.475522 0.312683 -0.165353
v -0.475522 0.304204 -0.173831
v -0.484000 0.304204 -0.165353
v 0.475522 0.097436 0.165353
v 0.484000 0.105914 0.165353
v 0.475522 0.105914 0.173831
v 0.475522 0.312683 0.165353
v 0.475522 0.304204 0.173831
v 0.484000 0.304204 0.165353
v 0.475522 0.097436 -0.165353
v 0.475522 0.105914 -0.173831
v 0.484000 0.105914 -0.165353
v 0.475522 0.312683 -0.165353
v 0.484000 0.304204 -0.165353
v 0.475522 0.304204 -0.173831
v -0.410000 0.001375 0.133831
v -0.410000 0.101375 0.133831
v -0.410000 0.001375 0.113831
v -0.410000 0.101375 0.113831
v -0.390000 0.001375 0.133831
v -0.390000 0.101375 0.133831
v -0.390000 0.001375 0.113831
v -0.390000 0.101375 0.113831
v -0.410000 0.012467 0.133831
v -0.410000 0.012467 0.113831
v -0.390000 0.012467 0.113831
v -0.390000 0.012467 0.133831
v -0.410000 0.094194 0.133831
v -0.410000 0.094194 0.113831
v -0.390000 0.094194 0.113831
v -0.390000 0.094194 0.133831
v 0.390000 0.001375 0.133831
v 0.390000 0.101375 0.133831
v 0.390000 0.001375 0.113831
v 0.390000 0.101375 0.113831
v 0.410000 0.001375 0.133831
v 0.410000 0.101375 0.133831
v 0.410000 0.001375 0.113831
v 0.410000 0.101375 0.113831
v 0.390000 0.012467 0.133831
v 0.390000 0.012467 0.113831
v 0.410000 0.012467 0.113831
v 0.410000 0.012467 0.133831
v 0.390000 0.094194 0.133831
v 0.390000 0.094194 0.113831
v 0.410000 0.094194 0.113831
v 0.410000 0.094194 0.133831
v -0.410000 0.001375 -0.113831
v -0.410000 0.101375 -0.113831
v -0.410000 0.001375 -0.133831
v -0.410000 0.101375 -0.133831
v -0.390000 0.001375 -0.113831
v -0.390000 0.101375 -0.113831
v -0.390000 0.001375 -0.133831
v -0.390000 0.101375 -0.133831
v -0.410000 0.012467 -0.113831
v -0.410000 0.012467 -0.133831
v -0.390000 0.012467 -0.133831
v -0.390000 0.012467 -0.113831
v -0.410000 0.094194 -0.113831
v -0.410000 0.094194 -0.133831
v -0.390000 0.094194 -0.133831
v -0.390000 0.094194 -0.113831
v 0.390000 0.001375 -0.113831
v 0.390000 0.101375 -0.113831
v 0.390000 0.001375 -0.133831
v 0.390000 0.101375 -0.133831
v 0.410000 0.001375 -0.113831
v 0.410000 0.101375 -0.113831
v 0.410000 0.001375 -0.133831
v 0.410000 0.101375 -0.133831
v 0.390000 0.012467 -0.113831
v 0.390000 0.012467 -0.133831
v 0.410000 0.012467 -0.133831
v 0.410000 0.012467 -0.113831
v 0.390000 0.094194 -0.113831
v 0.390000 0.094194 -0.133831
v 0.410000 0.094194 -0.133831
v 0.410000 0.094194 -0.113831
vn -0.4606 -0.7588 0.4606
vn -0.2752 -0.6532 0.7054
vn -0.7054 -0.6532 0.2752
vn -0.3416 0.3416 0.8756
vn -0.3416 0.8756 0.3416
vn -0.8756 0.3416 0.3416
vn -0.4606 -0.7588 -0.4606
vn -0.7054 -0.6532 -0.2752
vn -0.2752 -0.6532 -0.7054
vn -0.3416 0.8756 -0.3416
vn -0.3416 0.3416 -0.8756
vn -0.8756 0.3416 -0.3416
vn 0.4606 -0.7588 0.4606
vn 0.7054 -0.6532 0.2752
vn 0.2752 -0.6532 0.7054
vn 0.3416 0.8756 0.3416
vn 0.3416 0.3416 0.8756
vn 0.8756 0.3416 0.3416
vn 0.4606 -0.7588 -0.4606
vn 0.2752 -0.6532 -0.7054
vn 0.7054 -0.6532 -0.2752
vn 0.3416 0.8756 -0.3416
vn 0.8756 0.3416 -0.3416
vn 0.3416 0.3416 -0.8756
vn -0.5774 -0.5774 0.5774
vn -0.5774 0.5774 0.5774
vn -0.5774 -0.5774 -0.5774
vn -0.5774 0.5774 -0.5774
vn 0.5774 -0.5774 0.5774
vn 0.5774 0.5774 0.5774
vn 0.5774 -0.5774 -0.5774
vn 0.5774 0.5774 -0.5774
vn -0.7071 -0.0000 0.7071
vn -0.7071 -0.0000 -0.7071
vn 0.7071 -0.0000 -0.7071
vn 0.7071 -0.0000 0.7071
vt 0.630571 0.723522
vt 0.627137 0.726956
vt 0.630571 0.726956
vt 0.627137 0.784898
vt 0.630571 0.788332
vt 0.630571 0.784898
vt 0.785728 0.723522
vt 0.785728 0.726956
vt 0.789162 0.726956
vt 0.785728 0.788332
vt 0.789162 0.784898
vt 0.785728 0.784898
vt 0.323100 0.763868
vt 0.323100 0.821810
vt 0.167944 0.821810
vt 0.167944 0.763868
vt 0.167944 0.825244
vt 0.323100 0.825244
vt 0.164510 0.763868
vt 0.164510 0.821810
vt 0.326535 0.821810
vt 0.326535 0.763868
vt 0.775159 0.718396
vt 0.775159 0.719401
vt 0.789158 0.719401
vt 0.789158 0.718396
vt 0.775159 0.705402
vt 0.789158 0.705402
vt 0.789158 0.706955
vt 0.775159 0.706955
s 1
usemtl TabureteMaterial
f 1/1/1 2/2/2 3/3/3
f 4/4/4 5/5/5 6/6/6
f 7/7/7 8/8/8 9/9/9
f 10/10/10 11/11/11 12/12/12
f 13/1/13 14/3/14 15/2/15
f 16/5/16 17/4/17 18/6/18
f 19/7/19 20/9/20 21/8/21
f 22/10/22 23/12/23 24/11/24
f 13/1/13 15/2/15 2/2/2 1/1/1
f 5/5/5 4/4/4 17/4/17 16/5/16
f 9/9/9 8/8/8 12/12/12 11/11/11
f 1/1/1 3/3/3 8/8/8 7/7/7
f 7/7/7 9/9/9 20/9/20 19/7/19
f 16/5/16 18/6/18 23/12/23 22/10/22
f 4/4/4 6/6/6 3/3/3 2/2/2
f 21/8/21 20/9/20 24/11/24 23/12/23
f 15/2/15 14/3/14 18/6/18 17/4/17
f 19/7/19 21/8/21 14/3/14 13/1/13
f 22/10/22 24/11/24 11/11/11 10/10/10
f 10/10/10 12/12/12 6/6/6 5/5/5
f 21/13/21 23/14/23 18/15/18 14/16/14
f 5/17/5 16/17/16 22/18/22 10/18/10
f 2/19/2 15/19/15 17/20/17 4/20/4
f 3/16/3 6/15/6 12/14/12 8/13/8
f 11/21/11 24/21/24 20/22/20 9/22/9
f 15/19/15 2/19/2 3/16/3 8/13/8 9/22/9 20/22/20 21/13/21 14/16/14
f 37/23/33 26/24/26 28/24/28 38/23/34
f 38/23/34 28/24/28 32/25/32 39/26/35
f 39/26/35 32/25/32 30/25/30 40/26/36
f 40/26/36 30/25/30 26/24/26 37/23/33
f 27/27/27 31/28/31 29/28/29 25/27/25
f 32/25/32 28/24/28 26/24/26 30/25/30
f 29/28/29 36/29/36 33/30/33 25/27/25
f 31/28/31 35/29/35 36/29/36 29/28/29
f 27/27/27 34/30/34 35/29/35 31/28/31
f 25/27/25 33/30/33 34/30/34 27/27/27
f 36/29/36 40/26/36 37/23/33 33/30/33
f 35/29/35 39/26/35 40/26/36 36/29/36
f 34/30/34 38/23/34 39/26/35 35/29/35
f 33/30/33 37/23/33 38/23/34 34/30/34
f 53/23/33 42/24/26 44/24/28 54/23/34
f 54/23/34 44/24/28 48/25/32 55/26/35
f 55/26/35 48/25/32 46/25/30 56/26/36
f 56/26/36 46/25/30 42/24/26 53/23/33
f 43/27/27 47/28/31 45/28/29 41/27/25
f 48/25/32 44/24/28 42/24/26 46/25/30
f 45/28/29 52/29/36 49/30/33 41/27/25
f 47/28/31 51/29/35 52/29/36 45/28/29
f 43/27/27 50/30/34 51/29/35 47/28/31
f 41/27/25 49/30/33 50/30/34 43/27/27
f 52/29/36 56/26/36 53/23/33 49/30/33
f 51/29/35 55/26/35 56/26/36 52/29/36
f 50/30/34 54/23/34 55/26/35 51/29/35
f 49/30/33 53/23/33 54/23/34 50/30/34
f 69/23/33 58/24/26 60/24/28 70/23/34
f 70/23/34 60/24/28 64/25/32 71/26/35
f 71/26/35 64/25/32 62/25/30 72/26/36
f 72/26/36 62/25/30 58/24/26 69/23/33
f 59/27/27 63/28/31 61/28/29 57/27/25
f 64/25/32 60/24/28 58/24/26 62/25/30
f 61/28/29 68/29/36 65/30/33 57/27/25
f 63/28/31 67/29/35 68/29/36 61/28/29
f 59/27/27 66/30/34 67/29/35 63/28/31
f 57/27/25 65/30/33 66/30/34 59/27/27
f 68/29/36 72/26/36 69/23/33 65/30/33
f 67/29/35 71/26/35 72/26/36 68/29/36
f 66/30/34 70/23/34 71/26/35 67/29/35
f 65/30/33 69/23/33 70/23/34 66/30/34
f 85/23/33 74/24/26 76/24/28 86/23/34
f 86/23/34 76/24/28 80/25/32 87/26/35
f 87/26/35 80/25/32 78/25/30 88/26/36
f 88/26/36 78/25/30 74/24/26 85/23/33
f 75/27/27 79/28/31 77/28/29 73/27/25
f 80/25/32 76/24/28 74/24/26 78/25/30
f 77/28/29 84/29/36 81/30/33 73/27/25
f 79/28/31 83/29/35 84/29/36 77/28/29
f 75/27/27 82/30/34 83/29/35 79/28/31
f 73/27/25 81/30/33 82/30/34 75/27/27
f 84/29/36 88/26/36 85/23/33 81/30/33
f 83/29/35 87/26/35 88/26/36 84/29/36
f 82/30/34 86/23/34 87/26/35 83/29/35
f 81/30/33 85/23/33 86/23/34 82/30/34
